# xmcd
#
# Track frame offsets:
#	150
#	16113
#	30737
#	48117
#	55972
#	73381
#	79489
#	96610
#	109218
#	118357
#
# Disc length: 2113 seconds
#
# Revision: 0
# Processed by: cddbd v1.5.2PL0 Copyright (c) Steve Scherf et al.
# Submitted via: EasyCDDAExtractor 16.0.6.1
#
DISCID=91083f0a
DTITLE=The Great White Shark - Life Lessons
DYEAR=2011
DGENRE=
TTITLE0=Life Lessons
TTITLE1=Lucky Man
TTITLE2=Madrone
TTITLE3=Old Hound
TTITLE4=Mountain Hymnal
TTITLE5=Bella Blue
TTITLE6=First Day of Summer
TTITLE7=What's Right
TTITLE8=Walking Song
TTITLE9=A Fish In The Sea
EXTD=
EXTT0=
EXTT1=
EXTT2=
EXTT3=
EXTT4=
EXTT5=
EXTT6=
EXTT7=
EXTT8=
EXTT9=
PLAYORDER=
